<?xml version="1.0" encoding="UTF-8"?>
<svg width="248px" height="86px" viewBox="0 0 248 86" version="1.1" xmlns="http://www.w3.org/2000/svg" xmlns:xlink="http://www.w3.org/1999/xlink">
    <title>AAA Visual assets/Atoms/Logos/NatWest/Horizontal/Light</title>
    <defs>
        <polygon id="path-1" points="0 0 86.2608696 0 86.2608696 86 0 86"></polygon>
        <linearGradient x1="24.9732878%" y1="41.7104888%" x2="75.0043043%" y2="58.2795624%" id="linearGradient-3">
            <stop stop-color="#DC1405" stop-opacity="0.1" offset="0%"></stop>
            <stop stop-color="#DC1405" stop-opacity="0.6" offset="100%"></stop>
        </linearGradient>
        <linearGradient x1="71.1064925%" y1="35.5591309%" x2="36.2335623%" y2="59.4200248%" id="linearGradient-4">
            <stop stop-color="#DC1405" stop-opacity="0.1" offset="0%"></stop>
            <stop stop-color="#DC1405" stop-opacity="0.6" offset="100%"></stop>
        </linearGradient>
        <linearGradient x1="42.4073583%" y1="29.3364932%" x2="63.8660905%" y2="70.6637008%" id="linearGradient-5">
            <stop stop-color="#DC1405" stop-opacity="0.1" offset="0%"></stop>
            <stop stop-color="#DC1405" stop-opacity="0.6" offset="100%"></stop>
        </linearGradient>
    </defs>
    <g id="Logos" stroke="none" stroke-width="1" fill="none" fill-rule="evenodd">
        <g transform="translate(-789.000000, -711.000000)" id="AAA-Visual-assets/Atoms/Logos/NatWest/Horizontal/Light">
            <g transform="translate(789.000000, 711.000000)" id="NW-LOGO-HORIZONTAL-POS-RGB">
                <path d="M165.251757,35.3540391 L165.251757,39.6221945 L160.030841,39.6221945 L160.030841,50.7434444 C160.030841,52.7272349 160.973869,53.112295 162.71635,53.112295 C163.732797,53.112295 164.499618,52.9173279 164.863451,52.8052218 L165.251757,52.6833673 L165.251757,56.9612711 L165.034762,57.014887 C163.569643,57.3853246 162.344359,57.507179 160.538249,57.507179 C159.286861,57.507179 155.208021,57.0977481 155.208021,51.7670218 L155.208021,39.6221945 L152.142365,39.6221945 L152.142365,39.334618 C152.139102,39.1282778 152.139102,37.6611502 152.142365,36.2947555 L152.142365,35.3540391 L155.208021,35.3540391 L155.208021,29.880337 L160.032473,28.1987456 L160.032473,35.3540391 L165.251757,35.3540391 L165.251757,35.3540391 Z M197.641009,28.3774654 L191.867003,57.0473815 L186.965869,57.0473815 L181.864056,37.0843724 L176.679035,57.0473815 L171.857846,57.0473815 L165.821163,28.3774654 L170.854451,28.3774654 L174.766875,47.8303106 L179.628852,28.3774654 L184.321149,28.3774654 C184.786137,30.1955339 189.192916,47.5898511 189.25002,47.8059397 C189.284282,47.5736039 192.715402,29.0127333 192.836136,28.3774654 L197.641009,28.3774654 L197.641009,28.3774654 Z M202.640036,43.9553389 C202.764033,41.9098088 204.214468,39.2403839 207.281756,39.2403839 C210.611721,39.2403839 211.624905,42.1681403 211.735849,43.9553389 L202.640036,43.9553389 Z M207.49875,34.9657296 C203.821268,34.9657296 197.613273,37.3524522 197.613273,46.3046928 C197.613273,56.9645205 206.129891,57.507179 207.836478,57.507179 C211.451962,57.507179 213.067182,56.7565556 214.654667,56.0173052 L214.82761,55.9360689 L214.82761,51.4014585 L214.369148,51.6760372 C213.217284,52.3925414 210.985342,53.1984055 208.482566,53.1984055 C203.41991,53.1984055 202.705297,49.5931384 202.640036,48.0756442 L216.557038,48.0756442 L216.584774,47.8303106 C217.025289,44.8391899 216.5913,40.6490214 214.122786,37.7976271 C212.49125,35.9210685 210.259309,34.9657296 207.49875,34.9657296 M234.4142,51.0098995 C234.4142,54.2626011 231.573695,57.5510466 226.165154,57.5510466 C223.7929,57.5510466 221.172653,56.9645205 219.289861,56.0595481 L219.120181,55.9750623 L219.120181,51.3202222 L219.567222,51.5623064 C221.133496,52.4022897 223.642799,53.2926396 226.037894,53.2926396 C228.22252,53.2926396 229.478803,52.5143958 229.478803,51.1512507 C229.478803,49.8709665 228.708718,49.4761581 226.807979,48.6394242 L226.059104,48.3209779 C225.138917,47.9261694 224.33457,47.5736039 223.011394,46.967581 C221.740428,46.3989269 218.775927,45.0666516 218.775927,41.1071941 C218.775927,38.9771783 220.417252,34.9722285 226.576301,34.9722285 C229.118234,34.9722285 231.632431,35.6562382 232.624405,36.1339077 L232.800611,36.2200181 L232.800611,40.793622 L232.35357,40.5840323 C230.387569,39.6156956 228.661404,39.1672712 226.747612,39.1672712 C226.042788,39.1672712 223.714586,39.3069977 223.714586,40.9284743 C223.714586,42.1583919 225.181337,42.8034081 226.365832,43.3330688 L226.594248,43.4289277 C227.447541,43.8042394 228.119734,44.1161868 228.697297,44.3436485 L229.317281,44.6084788 C233.025762,46.2250812 234.4142,47.9505403 234.4142,51.0098995 M125.47654,28.3774654 L130.183521,28.3774654 L130.183521,57.0473815 L125.607063,57.0473815 L113.042604,37.0794982 L113.042604,57.0473815 L108.342149,57.0473815 L108.342149,28.3774654 L113.03771,28.3774654 L125.478172,48.4964483 L125.478172,28.3774654 L125.47654,28.3774654 Z M242.775822,39.6221945 L242.775822,50.7434444 C242.775822,52.7353586 243.717218,53.112295 245.467856,53.112295 C246.461462,53.112295 247.221757,52.9173279 247.6068,52.8133454 L248,52.6833673 L248,56.9612711 L247.752007,57.014887 C246.309729,57.3853246 245.086077,57.507179 243.275072,57.507179 C242.023684,57.507179 237.967685,57.0977481 237.967685,51.7670218 L237.967685,39.6221945 L234.885714,39.6221945 L234.885714,39.334618 C234.874293,39.1282778 234.874293,37.6611502 234.885714,36.2947555 L234.885714,35.3540391 L237.967685,35.3540391 L237.967685,29.880337 L242.775822,28.1987456 L242.775822,35.3540391 L248,35.3540391 L248,39.6221945 L242.775822,39.6221945 Z M145.958843,50.7158241 C145.404121,51.3949596 143.673061,53.1886571 140.974501,53.1886571 C138.90245,53.1886571 137.576011,52.0026071 137.576011,50.1666667 C137.576011,48.2852339 139.088445,47.2015416 141.720113,47.2015416 L145.957212,47.2015416 L145.957212,50.7158241 L145.958843,50.7158241 Z M142.245467,34.8991158 C139.798163,34.8991158 137.421015,35.3231693 135.747059,36.0477972 L135.55617,36.1176604 L135.55617,40.5336658 L135.993421,40.3159525 C137.124076,39.7700446 139.832425,39.2728784 141.530854,39.2728784 C145.761427,39.2728784 145.947422,40.876483 145.960475,42.9626313 L141.437857,42.9626313 C135.448488,42.9626313 132.722192,46.701126 132.722192,50.1666667 C132.722192,54.998602 136.582406,57.5088037 140.413252,57.5088037 C143.02371,57.5088037 144.666667,56.5355928 145.991474,55.3657901 L145.991474,57.0490063 L150.762085,57.0490063 L150.762085,42.389103 C150.760454,35.6286178 144.802084,34.8991158 142.245467,34.8991158" id="Shape" fill="#FFFFFF" fill-rule="nonzero"></path>
                <g id="NatWest-Brandmark">
                    <g id="Squircle">
                        <mask id="mask-2" fill="white">
                            <use xlink:href="#path-1"></use>
                        </mask>
                        <g id="Clip-2"></g>
                        <path d="M86.2609348,42.9999838 C86.2609348,82.8790036 83.1304724,86 43.1305,86 C3.1303646,86 -9.77811156e-05,82.8790036 -9.77811156e-05,42.9999838 C-9.77811156e-05,3.12096394 3.1303646,-3.24951476e-05 43.1305,-3.24951476e-05 C83.1304724,-3.24951476e-05 86.2609348,3.12096394 86.2609348,42.9999838" id="Fill-1" fill="#3C1053" mask="url(#mask-2)"></path>
                    </g>
                    <g id="Cubes" transform="translate(13.037482, 15.435195)" fill-rule="nonzero">
                        <g id="Group">
                            <polygon id="Path" fill="#E90000" points="42.927539 37.0509671 25.7620643 37.0509671 34.3407274 51.8801277 51.5062021 51.8801277 51.5094615 51.8801277 51.5094615 51.8801277"></polygon>
                            <polygon id="Path" fill="#C20000" points="51.5062021 22.2380542 60.0881246 37.0574662 51.5094615 51.8801277 42.927539 37.0509671"></polygon>
                            <polygon id="Path" fill="#E90000" points="38.6267996 0 38.6284293 0 21.461325 0 12.8842915 14.812913 30.0481365 14.812913 30.0481365 14.812913"></polygon>
                            <polygon id="Path" fill="#C20000" points="30.0481365 14.812913 38.6316887 29.6371992 47.2103518 14.819412 38.6267996 0"></polygon>
                            <polygon id="Path" fill="#E90000" points="17.168734 37.0493424 17.1703637 37.0493424 25.7473971 22.2364294 8.58192249 22.2364294 0.00488905573 37.0493424 0.00325937048 37.0493424 0 37.0558414"></polygon>
                            <polygon id="Path" fill="#C20000" points="25.7506565 51.8801277 25.7473971 51.8801277 8.58192249 51.8801277 0 37.0558414 0.00325937048 37.0493424 17.168734 37.0493424"></polygon>
                        </g>
                        <polygon id="Path" fill="url(#linearGradient-3)" points="42.9128718 22.2380542 38.630059 29.6371992 30.0465068 29.6371992 30.0465068 29.6371992 25.7604346 37.0509671 42.927539 37.0509671 51.5062021 22.2380542"></polygon>
                        <polygon id="Path" fill="url(#linearGradient-4)" points="17.1931793 22.2364294 25.7473971 22.2364294 30.0465068 29.6371992 30.0465068 29.6371992 38.630059 29.6371992 30.0481365 14.8112882 12.8842915 14.8112882"></polygon>
                        <polygon id="Path" fill="url(#linearGradient-5)" points="30.0399881 44.4468627 25.7604346 37.0509671 30.0465068 29.6371992 30.0465068 29.6371992 25.7473971 22.2364294 17.1703637 37.0493424 25.7506565 51.8785029"></polygon>
                    </g>
                </g>
            </g>
        </g>
    </g>
</svg>